<svg id="Calque_1" data-name="Calque 1" xmlns="http://www.w3.org/2000/svg" viewBox="0 0 170.31 72.56"><defs><style>.cls-1{fill:#1e1e1c;}.cls-2{fill:#496492;}</style></defs><title>logothinkcolors</title><path class="cls-1" d="M171.64,120.55v38.62H156.87V120.55H143.69V109.64h41.13v10.91Z" transform="translate(-143.69 -102.12)"/><path class="cls-1" d="M199.67,133.07v26.1H187.49v-49.6l12.18-2.06v15.84a27,27,0,0,1,7-1.13c10.65,0,13.85,5.59,13.85,13.11v23.84h-12V136.33c0-2.26-.94-4.06-4.13-4.06A15.74,15.74,0,0,0,199.67,133.07Z" transform="translate(-143.69 -102.12)"/><path class="cls-1" d="M224.24,159.17V122.42H236v36.75Z" transform="translate(-143.69 -102.12)"/><path class="cls-1" d="M252.08,159.17H239.9v-29c0-3.6,1.73-5.4,5.19-6.39a42.33,42.33,0,0,1,12.11-1.73c11.19,0,15.71,5.25,15.71,13.11v24H261v-23c0-2.33-.93-4.13-4.2-4.13a15.42,15.42,0,0,0-4.72.8Z" transform="translate(-143.69 -102.12)"/><path class="cls-1" d="M299.15,159.17l-5.8-14.45-2.06,2.59c-1.53,1.93-2.73,3.33-2.66,6.73v5.13H276.71v-49.6l11.92-2.06V135.2l9.85-12.78h14.11l-9.92,12.25,10.05,24.5Z" transform="translate(-143.69 -102.12)"/><circle class="cls-2" cx="229.95" cy="110.15" r="8.03" transform="translate(-73.61 206.65) rotate(-76.76)"/><path class="cls-2" d="M164.67,174.54h-1.56V164.27h-5.7V163h13v1.29h-5.7Z" transform="translate(-143.69 -102.12)"/><path class="cls-2" d="M184.77,174.54H183.2V169.2H172.8v5.34h-1.57V163h1.57v4.89h10.4V163h1.57Z" transform="translate(-143.69 -102.12)"/><path class="cls-2" d="M198.25,174.54H186.84V163h11.32v1.29H188.4V168h9.34v1.24H188.4v4h9.85Z" transform="translate(-143.69 -102.12)"/><path class="cls-2" d="M211.27,174.67c-6.07,0-7.07-.86-7.07-5.74v-.34c0-4.88,1-5.75,7.07-5.75h.49c6.05,0,7.06.87,7.06,5.75v.34c0,4.88-1,5.74-7.06,5.74Zm.44-1.31c5,0,5.54-.47,5.54-4.5v-.21c0-4-.56-4.52-5.54-4.52h-.41c-5,0-5.52.48-5.52,4.52v.21c0,4,.56,4.5,5.52,4.5Z" transform="translate(-143.69 -102.12)"/><path class="cls-2" d="M222.15,174.54h-1.57V163h7.5c4.47,0,5.32.51,5.32,3.5v.25c0,3-.92,3.54-5.32,3.54h-5.93Zm5.63-5.54c3.77,0,4.07-.29,4.07-2.27v-.23c0-2-.3-2.26-4.07-2.26h-5.63V169Z" transform="translate(-143.69 -102.12)"/><path class="cls-2" d="M246.2,174.54H234.8V163h11.32v1.29h-9.76V168h9.33v1.24h-9.33v4h9.84Z" transform="translate(-143.69 -102.12)"/><path class="cls-2" d="M261.59,174.54h-2.45l-10-10.22H249v10.22H247.5V163H250l10,10.21H260V163h1.55Z" transform="translate(-143.69 -102.12)"/><path class="cls-2" d="M284.08,174.54h-1.86l-4.11-9.85h0L274,174.54h-1.86L267.42,163H269l4,10.16h0L277.33,163h1.55l4.26,10.16h0l4-10.16h1.6Z" transform="translate(-143.69 -102.12)"/><path class="cls-2" d="M302.2,174.54h-1.7L299.12,172h-9l-1.43,2.54H287L293.7,163h2Zm-3.72-3.71-3.69-6.71h-.15l-3.85,6.71Z" transform="translate(-143.69 -102.12)"/><path class="cls-2" d="M307.33,174.54h-1.56v-4.37L299.14,163h2l5.49,6h.05l5.42-6H314l-6.67,7.19Z" transform="translate(-143.69 -102.12)"/></svg>