<svg id="Calque_1" data-name="Calque 1" xmlns="http://www.w3.org/2000/svg" viewBox="0 0 170.31 72.56"><defs><style>.cls-1{fill:#fff;}</style></defs><title>logothinkwhite</title><path class="cls-1" d="M187.16,120.69v38.62H172.39V120.69H159.21V109.77h41.13v10.92Z" transform="translate(-159.21 -102.25)"/><path class="cls-1" d="M215.19,133.21v26.1H203v-49.6l12.18-2.07v15.85a26.92,26.92,0,0,1,7-1.14c10.65,0,13.85,5.6,13.85,13.12v23.84h-12V136.47c0-2.27-.94-4.06-4.13-4.06A15.74,15.74,0,0,0,215.19,133.21Z" transform="translate(-159.21 -102.25)"/><path class="cls-1" d="M239.76,159.31V122.55h11.79v36.76Z" transform="translate(-159.21 -102.25)"/><path class="cls-1" d="M267.6,159.31H255.42v-29c0-3.59,1.73-5.39,5.19-6.39a42.69,42.69,0,0,1,12.11-1.73c11.19,0,15.71,5.26,15.71,13.12v24H276.52v-23c0-2.33-.93-4.12-4.2-4.12a15.65,15.65,0,0,0-4.72.79Z" transform="translate(-159.21 -102.25)"/><path class="cls-1" d="M314.67,159.31l-5.8-14.46-2.06,2.6c-1.53,1.93-2.73,3.33-2.66,6.72v5.14H292.23v-49.6l11.92-2.07v27.7L314,122.55h14.11l-9.92,12.25,10.06,24.51Z" transform="translate(-159.21 -102.25)"/><circle class="cls-1" cx="245.47" cy="110.28" r="8.03" transform="translate(-77.29 221.73) rotate(-76.76)"/><path class="cls-1" d="M180.19,174.67h-1.56V164.41h-5.7v-1.3h13v1.3h-5.7Z" transform="translate(-159.21 -102.25)"/><path class="cls-1" d="M200.29,174.67h-1.57v-5.34h-10.4v5.34h-1.57V163.11h1.57V168h10.4v-4.9h1.57Z" transform="translate(-159.21 -102.25)"/><path class="cls-1" d="M213.77,174.67H202.36V163.11h11.32v1.3h-9.76v3.68h9.34v1.24h-9.34v4h9.85Z" transform="translate(-159.21 -102.25)"/><path class="cls-1" d="M226.79,174.81c-6.07,0-7.07-.87-7.07-5.75v-.34c0-4.88,1-5.74,7.07-5.74h.49c6.05,0,7.06.86,7.06,5.74v.34c0,4.88-1,5.75-7.06,5.75Zm.44-1.31c5,0,5.54-.48,5.54-4.51v-.2c0-4-.56-4.52-5.54-4.52h-.41c-5,0-5.52.48-5.52,4.52v.2c0,4,.56,4.51,5.52,4.51Z" transform="translate(-159.21 -102.25)"/><path class="cls-1" d="M237.67,174.67h-1.56V163.11h7.49c4.47,0,5.32.51,5.32,3.5v.26c0,3-.92,3.54-5.32,3.54h-5.93Zm5.63-5.54c3.77,0,4.08-.29,4.08-2.26v-.24c0-2-.31-2.26-4.08-2.26h-5.63v4.76Z" transform="translate(-159.21 -102.25)"/><path class="cls-1" d="M261.72,174.67h-11.4V163.11h11.32v1.3h-9.76v3.68h9.33v1.24h-9.33v4h9.84Z" transform="translate(-159.21 -102.25)"/><path class="cls-1" d="M277.11,174.67h-2.45l-10-10.21h-.09v10.21H263V163.11h2.46l10,10.22h.07V163.11h1.55Z" transform="translate(-159.21 -102.25)"/><path class="cls-1" d="M299.6,174.67h-1.85l-4.12-9.84h0l-4.13,9.84h-1.86l-4.67-11.56h1.61l4,10.17h0l4.23-10.17h1.55l4.26,10.17h0l4-10.17h1.6Z" transform="translate(-159.21 -102.25)"/><path class="cls-1" d="M317.72,174.67H316l-1.38-2.53h-9l-1.43,2.53h-1.66l6.66-11.56h2ZM314,171l-3.69-6.72h-.15L306.31,171Z" transform="translate(-159.21 -102.25)"/><path class="cls-1" d="M322.86,174.67h-1.57V170.3l-6.63-7.19h2l5.49,6h.05l5.42-6h1.94l-6.66,7.19Z" transform="translate(-159.21 -102.25)"/></svg>